<svg xmlns="http://www.w3.org/2000/svg" version="1.1" xmlns:xlink="http://www.w3.org/1999/xlink" width="512" height="512" x="0" y="0" viewBox="0 0 512.043 512.043" style="enable-background:new 0 0 512 512" xml:space="preserve" class=""><g><path d="M473.21.021H200.923c-22.457 1.146-39.78 20.202-38.787 42.667v349.867c0 .128.067.234.073.36.028.964.22 1.917.569 2.816l.053.18.014.048 20.196 46.408a16.123 16.123 0 0 0 14.642 9.921h7.121v34.133a25.29 25.29 0 0 0 1.573 8.533H102.402v-153.6c-.015-14.132-11.468-25.585-25.6-25.6V170.095c35.76-4.505 61.856-36.034 59.599-72.006-2.257-35.972-32.09-63.992-68.133-63.992S2.393 62.117.136 98.089c-2.257 35.972 23.839 67.501 59.599 72.006v145.659c-14.132.015-25.585 11.468-25.6 25.6v153.6h-25.6c-4.713 0-8.533 3.82-8.533 8.533s3.82 8.533 8.533 8.533h494.933a8.533 8.533 0 0 0 0-17.066h-35.706a25.274 25.274 0 0 0 1.572-8.533v-34.133h7.117a16.136 16.136 0 0 0 14.642-9.912l20.2-46.417.014-.045c.026-.061.031-.128.056-.19.35-.902.543-1.857.569-2.824.005-.121.07-.223.07-.345V42.688c.992-22.466-16.333-41.522-38.792-42.667zm-456.141 102.4c0-28.277 22.923-51.2 51.2-51.2s51.2 22.923 51.2 51.2-22.923 51.2-51.2 51.2c-28.265-.031-51.169-22.936-51.2-51.2zm68.266 392.534H51.202v-153.6a8.544 8.544 0 0 1 8.533-8.533h17.067a8.544 8.544 0 0 1 8.533 8.533v153.6zm170.667-8.534a8.544 8.544 0 0 1-8.533 8.533h-17.067a8.544 8.544 0 0 1-8.533-8.533v-34.133h34.133v34.133zm15.494 8.534a25.274 25.274 0 0 0 1.572-8.533v-34.133h128v34.133a25.29 25.29 0 0 0 1.573 8.533H271.496zm180.773-8.534a8.54 8.54 0 0 1-8.533 8.533h-17.067a8.54 8.54 0 0 1-8.533-8.533v-34.133h34.133v34.133zm23.325-51.2h-277.05l-14.854-34.133h306.763l-14.859 34.133zm-176.925-51.2v-17.067a8.544 8.544 0 0 1 8.533-8.533h59.733a8.544 8.544 0 0 1 8.533 8.533v17.067h-76.799zM494.935 42.688v341.333h-102.4v-17.067c-.015-14.132-11.468-25.585-25.6-25.6h-59.733c-14.132.015-25.585 11.468-25.6 25.6v17.067h-102.4V42.688c-.965-13.033 8.705-24.43 21.721-25.6H473.21c13.017 1.17 22.689 12.566 21.725 25.6z" fill="#ffffff" opacity="1" data-original="#000000" class=""></path><path d="M452.269 34.155h-230.4c-14.132.015-25.585 11.468-25.6 25.6v8.533c.015 14.132 11.468 25.585 25.6 25.6h230.4c14.132-.015 25.585-11.468 25.6-25.6v-8.533c-.016-14.132-11.468-25.585-25.6-25.6zm8.533 34.133a8.542 8.542 0 0 1-8.533 8.533h-230.4a8.544 8.544 0 0 1-8.533-8.533v-8.533a8.544 8.544 0 0 1 8.533-8.533h230.4a8.54 8.54 0 0 1 8.533 8.533v8.533zM230.402 298.688c-18.851 0-34.133 15.282-34.133 34.133.022 18.842 15.291 34.112 34.133 34.133 18.851 0 34.133-15.282 34.133-34.133 0-18.851-15.282-34.133-34.133-34.133zm0 51.2c-9.426 0-17.067-7.641-17.067-17.067.009-9.422 7.645-17.057 17.067-17.067 9.426 0 17.067 7.641 17.067 17.067s-7.641 17.067-17.067 17.067zM443.735 298.688c-18.851 0-34.133 15.282-34.133 34.133 0 18.851 15.282 34.133 34.133 34.133 18.851 0 34.133-15.282 34.133-34.133-.019-18.843-15.29-34.113-34.133-34.133zm0 51.2c-9.426 0-17.067-7.641-17.067-17.067s7.641-17.067 17.067-17.067 17.067 7.641 17.067 17.067c-.011 9.421-7.645 17.056-17.067 17.067zM452.269 110.955h-230.4c-14.132.015-25.585 11.468-25.6 25.6v119.467c.015 14.132 11.468 25.585 25.6 25.6h230.4c14.132-.015 25.585-11.468 25.6-25.6V136.555c-.016-14.132-11.468-25.585-25.6-25.6zm8.533 145.066a8.542 8.542 0 0 1-8.533 8.533h-230.4a8.544 8.544 0 0 1-8.533-8.533V136.555a8.544 8.544 0 0 1 8.533-8.533h230.4a8.54 8.54 0 0 1 8.533 8.533v119.466z" fill="#ffffff" opacity="1" data-original="#000000" class=""></path></g></svg>