<svg xmlns="http://www.w3.org/2000/svg" version="1.1" xmlns:xlink="http://www.w3.org/1999/xlink" width="512" height="512" x="0" y="0" viewBox="0 0 682.667 682.667" style="enable-background:new 0 0 512 512" xml:space="preserve" class=""><g><defs><clipPath id="a" clipPathUnits="userSpaceOnUse"><path d="M0 512h512V0H0Z" fill="#000000" opacity="1" data-original="#000000"></path></clipPath></defs><g clip-path="url(#a)" transform="matrix(1.33333 0 0 -1.33333 0 682.667)"><path d="M0 0c4.413-4.413 10.891-5.498 16.323-3.262L52.149 11.49l.884 41.543Z" style="fill-opacity:1;fill-rule:nonzero;stroke:none" transform="translate(11.89 11.89)" fill="#16202d" data-original="#16202d"></path><path d="m0 0-14.752-35.826c-2.237-5.433-1.151-11.91 3.261-16.323l66.292 39.775z" style="fill-opacity:1;fill-rule:nonzero;stroke:none" transform="translate(23.381 64.04)" fill="#2d3e53" data-original="#2d3e53"></path><path d="m0 0 .884 69.827-88.388-88.389 12.375-12.375z" style="fill-opacity:1;fill-rule:nonzero;stroke:none" transform="translate(139.17 54.317)" fill="#ffd19c" data-original="#ffd19c"></path><path d="m0 0-30.936-75.13 28.285-28.284 92.807 55.685z" style="fill-opacity:1;fill-rule:nonzero;stroke:none" transform="translate(54.317 139.17)" fill="#fff0be" data-original="#fff0be"></path><path d="m0 0-21.213 21.213-136.118-146.725 114.905 40.659L0-42.427C11.716-30.711 11.716-11.716 0 0" style="fill-opacity:1;fill-rule:nonzero;stroke:none" transform="translate(495.713 453.287)" fill="#ff3187" data-original="#ff3187"></path><path d="m0 0-21.213 21.213c-11.716 11.716-30.711 11.716-42.427.001l-42.426-42.427-14.142-141.422L0-42.426C11.716-30.711 11.716-11.716 0 0" style="fill-opacity:1;fill-rule:nonzero;stroke:none" transform="translate(474.5 474.5)" fill="#ff5178" data-original="#ff5178" class=""></path><path d="m0 0 116.672-31.82L148.492 0l-21.213 21.213Z" style="fill-opacity:1;fill-rule:nonzero;stroke:none" transform="translate(304.794 368.435)" fill="#dff5ff" data-original="#dff5ff"></path><path d="m0 0-63.639 63.64-31.82-31.821 21.213-106.065Z" style="fill-opacity:1;fill-rule:nonzero;stroke:none" transform="translate(432.073 389.647)" fill="#ffffff" data-original="#ffffff"></path><path d="m0 0 21.213-21.213L303.51 261.084l-21.213 21.213-192.811-89.484Z" style="fill-opacity:1;fill-rule:nonzero;stroke:none" transform="translate(117.957 75.53)" fill="#ffb24a" data-original="#ffb24a"></path><path d="m0 0 282.297 282.297-63.639 63.64L-63.64 63.64Z" style="fill-opacity:1;fill-rule:nonzero;stroke:none" transform="translate(117.957 75.53)" fill="#ffd23b" data-original="#ffd23b"></path><path d="m0 0-84.853 84.854" style="stroke-width:15;stroke-linecap:round;stroke-linejoin:round;stroke-miterlimit:10;stroke-dasharray:none;stroke-opacity:1" transform="translate(453.287 368.434)" fill="none" stroke="#000000" stroke-width="15" stroke-linecap="round" stroke-linejoin="round" stroke-miterlimit="10" stroke-dasharray="none" stroke-opacity="" data-original="#000000" class=""></path><path d="m0 0 130.541 130.541" style="stroke-width:15;stroke-linecap:round;stroke-linejoin:round;stroke-miterlimit:10;stroke-dasharray:none;stroke-opacity:1" transform="translate(248.5 248.5)" fill="none" stroke="#000000" stroke-width="15" stroke-linecap="round" stroke-linejoin="round" stroke-miterlimit="10" stroke-dasharray="none" stroke-opacity="" data-original="#000000" class=""></path><path d="m0 0 130.543 130.544" style="stroke-width:15;stroke-linecap:round;stroke-linejoin:round;stroke-miterlimit:10;stroke-dasharray:none;stroke-opacity:1" transform="translate(96.743 96.743)" fill="none" stroke="#000000" stroke-width="15" stroke-linecap="round" stroke-linejoin="round" stroke-miterlimit="10" stroke-dasharray="none" stroke-opacity="" data-original="#000000" class=""></path><path d="m0 0-84.853 84.853" style="stroke-width:15;stroke-linecap:round;stroke-linejoin:round;stroke-miterlimit:10;stroke-dasharray:none;stroke-opacity:1" transform="translate(421.467 336.614)" fill="none" stroke="#000000" stroke-width="15" stroke-linecap="round" stroke-linejoin="round" stroke-miterlimit="10" stroke-dasharray="none" stroke-opacity="" data-original="#000000" class=""></path><path d="m0 0-84.853 84.853" style="stroke-width:15;stroke-linecap:round;stroke-linejoin:round;stroke-miterlimit:10;stroke-dasharray:none;stroke-opacity:1" transform="translate(139.17 54.317)" fill="none" stroke="#000000" stroke-width="15" stroke-linecap="round" stroke-linejoin="round" stroke-miterlimit="10" stroke-dasharray="none" stroke-opacity="" data-original="#000000" class=""></path><path d="m0 0-42.427 42.426c-11.715 11.716-30.71 11.716-42.426 0l-356.543-356.543-45.688-110.957c-2.237-5.432-1.151-11.909 3.261-16.322 4.413-4.414 10.891-5.499 16.323-3.262l110.956 45.688L0-42.427C11.715-30.711 11.715-11.716 0 0Z" style="stroke-width:15;stroke-linecap:round;stroke-linejoin:round;stroke-miterlimit:10;stroke-dasharray:none;stroke-opacity:1" transform="translate(495.713 453.287)" fill="none" stroke="#000000" stroke-width="15" stroke-linecap="round" stroke-linejoin="round" stroke-miterlimit="10" stroke-dasharray="none" stroke-opacity="" data-original="#000000" class=""></path><path d="m0 0 40.659-40.659" style="stroke-width:15;stroke-linecap:round;stroke-linejoin:round;stroke-miterlimit:10;stroke-dasharray:none;stroke-opacity:1" transform="translate(23.381 64.04)" fill="none" stroke="#000000" stroke-width="15" stroke-linecap="round" stroke-linejoin="round" stroke-miterlimit="10" stroke-dasharray="none" stroke-opacity="" data-original="#000000" class=""></path></g></g></svg>