<svg xmlns="http://www.w3.org/2000/svg" version="1.1" xmlns:xlink="http://www.w3.org/1999/xlink" width="512" height="512" x="0" y="0" viewBox="0 0 512 512" style="enable-background:new 0 0 512 512" xml:space="preserve" class=""><g><path fill-rule="evenodd" d="m233.569 197.041 71.161 3.67 38.76 59.79a8.007 8.007 0 0 0 6.711 3.65 8.129 8.129 0 0 0 1.948-.24 8.02 8.02 0 0 0 6.028-7.1l12.97-156.681a8 8 0 0 0-12.527-7.239l-129.2 89.579a8.009 8.009 0 0 0 4.151 14.571zM125.9 312.71a24.386 24.386 0 1 0 24.394 24.382A24.413 24.413 0 0 0 125.9 312.71zm44.255-12.859a8 8 0 1 1-11.315 11.31 46.582 46.582 0 0 0-65.87 0 8 8 0 0 1-11.319-11.31 62.581 62.581 0 0 1 88.5 0zM192.2 277.8a93.868 93.868 0 0 0-132.6 0 8 8 0 1 0 11.31 11.31 77.858 77.858 0 0 1 109.978 0A8 8 0 1 0 192.2 277.8zm22.05-10.74a8 8 0 0 1-11.31 0 108.955 108.955 0 0 0-154.081 0 8 8 0 1 1-11.31-11.319 124.961 124.961 0 0 1 176.7 0 8 8 0 0 1 0 11.319zm251.527 156.711c-21.738-6.75-50.046-11.789-82.589-14.771a616.891 616.891 0 0 0 22.922-26.678c24.987-30.851 44.91-61.931 59.229-92.391 18.059-38.409 27.218-75.96 27.218-111.609C492.557 80.551 413.01 1 315.239 1a177.338 177.338 0 0 0-176.65 161.822 123.875 123.875 0 1 0 77.081 208.49c10.6 13.778 21.337 26.408 31.6 37.688-32.534 2.982-60.842 8.021-82.571 14.771-29.331 9.09-44.188 20.78-44.188 34.719 0 16.43 20.469 29.64 60.828 39.26 35.861 8.542 83.41 13.25 133.9 13.25s98.03-4.709 133.889-13.251c40.373-9.62 60.842-22.83 60.842-39.26 0-13.938-14.87-25.628-44.193-34.718zM125.9 393.91a107.87 107.87 0 1 1 107.871-107.87A107.991 107.991 0 0 1 125.9 393.91zm68.31-211.149c-.052-1.461-.08-2.931-.08-4.39a121.08 121.08 0 1 1 55.5 101.81 123.892 123.892 0 0 0-55.42-97.42zm251.211 299.42C410.737 490.451 364.506 495 315.239 495s-95.508-4.549-130.193-12.819c-38.4-9.15-48.537-19.49-48.537-23.691 0-3.189 6.882-11.36 32.93-19.439 23.059-7.161 55.551-12.509 91.82-15.151 26.832 27.69 47.659 44.231 49.018 45.311a8 8 0 0 0 9.914 0c1.231-.969 22.068-17.51 49.008-45.311 36.279 2.642 68.78 7.99 91.838 15.151 26.054 8.079 32.931 16.25 32.931 19.439 0 4.201-10.15 14.541-48.547 23.691z" fill="#ffffff" opacity="1" data-original="#000000" class=""></path></g></svg>