<svg xmlns="http://www.w3.org/2000/svg" version="1.1" xmlns:xlink="http://www.w3.org/1999/xlink" width="512" height="512" x="0" y="0" viewBox="0 0 66 66" style="enable-background:new 0 0 512 512" xml:space="preserve" class=""><g><path d="m30.5 53.7.7-5.1c-1.6-.1-3.1-.4-4.6-1l-.8 5.8v.8l1.3 6.6c.2 1.3 1.5 2.1 2.7 1.8 1.3-.3 2.1-1.5 1.8-2.7zM36.5 53.2l.8-5.6c-1.6.6-3.2 1-4.9 1l-.6 4.3v.8l1.3 6.6c.2 1.2 1.4 2.1 2.7 1.8 1.3-.2 2.1-1.5 1.8-2.7z" fill="#ffffff" opacity="1" data-original="#000000" class=""></path><circle cx="53.5" cy="7.5" r="4.3" fill="#ffffff" opacity="1" data-original="#000000" class=""></circle><circle cx="12.9" cy="13.6" r="4.3" fill="#ffffff" opacity="1" data-original="#000000" class=""></circle><path d="M31.9 26c2.2 0 4.1-1.8 4.1-4.1s-1.8-4.1-4.1-4.1-4.1 1.8-4.1 4.1 1.9 4.1 4.1 4.1zM64.8 23.3c-4.1-7-3.8-7-4.5-7.4-4.3-3.6-8.9-4.2-13.3-1.3l-.3.2c-.2.1-.1.1-3.2 3.6l-2.4-1.9c-.8-.6-2-.5-2.6.3-.3.3-.4.8-.4 1.2.3-.3.8-.4 1.3-.5 1.3-.1 2.4.9 2.5 2.2 0 .7 0 1.4-.1 2.1l.8.6c.8.6 1.9.5 2.6-.2l1.5-1.7-.1 14.6c0 .2.1.3.2.4l-1 7.3c-.1.4 0 .8.1 1.1l4.4 11.9c.5 1.2 1.8 1.8 3 1.4s1.8-1.8 1.4-3l-4.2-11.4.9-6.9.6.1-.9 6.8c-.1.4 0 .9.2 1.3L56.6 56c.5 1.2 1.9 1.7 3.1 1.2s1.7-1.9 1.2-3.1l-5.1-11.3.8-6.4c.8 0 .3-.3 2.8-14.7l1.7 2.9-1.1 4.8c-.2 1 .4 2 1.4 2.2s2-.4 2.2-1.4l1.3-5.5c.2-.5.1-.9-.1-1.4zM22.8 19.9c.3-.7-.1-1.5-.8-1.8s-1.5.1-1.8.8l-1.1 3-1.4-1-.1-.1c-3.4-2.9-7.1-3.4-10.6-1-.2.1-.4.3-.5.4s-3.6 4.6-3.4 4.3c-.3.4-.4.9-.2 1.3 1.4 4 1.6 4.1 1.7 4.3.5.6 1.4.7 2 .2.5-.4.7-1.2.3-1.8-.3-.6-.8-2-1.1-3 .1-.1 1-1.3.9-1.2v1c.4 1.2.9 2.4 1 2.7.6 1 .3 2.2-.6 3-.1.1-.3.2-.4.3V36c0 .1 0 .1.1.2l-1.6 7.2-.6-.4c-1.1-.4-2.6-.1-3.3 1s-.3 2.5.8 3.2l3.4 2.1c1.3.8 3.1.1 3.5-1.5l1.8-8c1.2 5 2.5 11.3 2.4 13.3-.1 1.3.9 2.4 2.2 2.5s2.4-.9 2.5-2.2c.2-3.3-1.9-12.2-2.9-16.3.1 0 .2-.1.3-.3l2-12.9 1.7 1.2c.8.5 1.8.2 2.1-.6l.3-.7c-.1-.4-.3-.8-.3-1.2-.5-1.4.8-2.7 1.7-2.7z" fill="#ffffff" opacity="1" data-original="#000000" class=""></path><path d="M39.4 18.5c-.8.1-1.3.8-1.3 1.5.2 2.4-1.3 5.6-2.7 7.4-2.4-.9-4.8-.9-7.2.1-1.5-1.1-3.1-3.4-3.6-5.5-.2-.8-.9-1.2-1.7-1.1-.7.2-1.2.9-1.1 1.6v.1c.7 3.1 3.1 6.1 5.3 7.7v4.6l-2.3 11c4.2 2.4 9.4 2.6 14 0l-2.3-11v-4.5c.8-.4 4.7-5.9 4.3-10.5 0-.9-.6-1.5-1.4-1.4z" fill="#ffffff" opacity="1" data-original="#000000" class=""></path></g></svg>