<svg xmlns="http://www.w3.org/2000/svg" version="1.1" xmlns:xlink="http://www.w3.org/1999/xlink" width="512" height="512" x="0" y="0" viewBox="0 0 512 512" style="enable-background:new 0 0 512 512" xml:space="preserve" class=""><g><path d="M113.352 245.994H10.58l69.95-49.354h79.488zm285.296 0H501.42l-69.95-49.354h-79.489zM200.745 512h44.68V364.915h-44.68zm61.196 0h44.679V364.915h-44.679zm248.256-249.49V512h-187.06V348.399H184.229V512H1.803V262.51h118.663l67.767-71.67 59.509-62.936V0H354.804l-4.254 2.77-47.796 31.123 47.796 31.124 4.254 2.769h-90.546v60.117l59.509 62.936 67.767 71.67h118.663zM80.886 430.092H33.813v47.073h47.073zm0-73.435H33.813v47.073h47.073zm75.318 73.435h-47.073v47.073h47.073zm0-73.435h-47.073v47.073h47.073zM294.6 268.158c0-21.318-17.282-38.6-38.6-38.6s-38.6 17.282-38.6 38.6 17.282 38.601 38.6 38.601 38.6-17.282 38.6-38.601zm108.269 161.934h-47.073v47.073h47.073zm0-73.435h-47.073v47.073h47.073zm75.318 73.435h-47.073v47.073h47.073zm0-73.435h-47.073v47.073h47.073z" fill="#ffffff" opacity="1" data-original="#000000"></path></g></svg>