<svg xmlns="http://www.w3.org/2000/svg" version="1.1" xmlns:xlink="http://www.w3.org/1999/xlink" width="512" height="512" x="0" y="0" viewBox="0 0 60 59" style="enable-background:new 0 0 512 512" xml:space="preserve"><g><g fill="#000" fill-rule="nonzero"><path d="M55.143 30.953a2 2 0 0 0-1.963-1.623h-1.931l-.142-.851a2.01 2.01 0 0 0-1.671-1.657c-.19-.03-.382-.05-.571-.076a6.1 6.1 0 0 0-.76-4.459 4.092 4.092 0 0 0-2.965-5.474 8.509 8.509 0 0 0-8.313-6.946c-.1 0-.189.013-.284.016a4.068 4.068 0 0 0-6.223-.774A6.864 6.864 0 0 0 26.586 8a6.943 6.943 0 0 0-5.458 2.688 4.981 4.981 0 0 0-6.366 4.476 4.116 4.116 0 0 0-2.521 3.792c.003.287.037.573.1.853a8.048 8.048 0 0 0-.959 6.9c-.268.037-.542.07-.8.108-.86.13-1.54.798-1.684 1.656l-.142.854H6.82a2 2 0 0 0-1.962 1.619L.479 53.428A3 3 0 0 0 3.43 57h20.854c.828 1.366 3.344 2 5.716 2 2.347 0 4.839-.619 5.691-2H56.57a3 3 0 0 0 2.951-3.571zM15.265 20.766a2.112 2.112 0 0 1 1.08-3.922 2.074 2.074 0 0 1 1.679.848A1 1 0 1 0 19.63 16.5a4.04 4.04 0 0 0-2.836-1.6 3.04 3.04 0 0 1 2.965-2.407c.122.006.244.02.364.04-.08.205-.15.414-.21.626a1 1 0 0 0 1.936.5c.114-.44.288-.86.519-1.252A4.938 4.938 0 0 1 26.586 10a4.857 4.857 0 0 1 2.649.8c-.15.421-.23.864-.235 1.311a1 1 0 0 0 2 0 2.103 2.103 0 1 1 4.207 0 1 1 0 0 0 2 0c0-.077-.019-.15-.023-.227a6.491 6.491 0 0 1 5.922 5.006 4.058 4.058 0 0 0-1.294.645 1 1 0 0 0 1.2 1.6 2.108 2.108 0 1 1 2.145 3.603 1 1 0 0 0 .426 1.9.987.987 0 0 0 .424-.095c.265-.128.515-.285.747-.467a4.271 4.271 0 0 1-.846 4.265l-.024.025a4.319 4.319 0 0 1-5.1.936A3.969 3.969 0 0 1 40.3 29a3.406 3.406 0 0 0 .264-3.52 1 1 0 1 0-1.787.9c.329.66.124 1.463-.482 1.885a1.509 1.509 0 0 1-2.172-.554 1 1 0 1 0-1.789.895 3.467 3.467 0 0 0 3.116 1.928 3.43 3.43 0 0 0 1.255-.247c.357.313.75.581 1.172.8a6.16 6.16 0 0 0 4.619.427 6.374 6.374 0 0 1-4.118 2.525 1 1 0 0 0 .316 1.975 8.218 8.218 0 0 0 1.774-.518c.308.545.558 1.12.746 1.717.034.104.052.213.052.323 0 .432-.258.823-.656.992-.46.178-.982.038-1.291-.347a6.383 6.383 0 0 0-2.927-1.945c-2.161-.724-2.995-1.371-3.349-2.075a9.6 9.6 0 0 0 1.533-.32 1 1 0 1 0-.588-1.912 7.578 7.578 0 0 1-1.726.317 7.422 7.422 0 0 1-3.314-.5 1 1 0 0 0-1.121.279 4.282 4.282 0 0 1-6.906-5.007 1.003 1.003 0 0 0-1.721-1.031c-.239.406-.43.838-.572 1.287a1.5 1.5 0 0 1-1.421-1.474v-.025a.989.989 0 0 0-1-.987 1.01 1.01 0 0 0-1 1.012 3.48 3.48 0 0 0 3.105 3.451c.004.335.034.67.091 1a6.111 6.111 0 0 1-6.914-8.369c.224.226.473.425.744.593a1 1 0 0 0 1.032-1.713zm-4.4 8.033c.461-.068.937-.128 1.41-.19a8.074 8.074 0 0 0 8.77 3.558 6.264 6.264 0 0 0 9.812 1.663 9.6 9.6 0 0 0 2.087.378c.483 1.832 1.879 2.942 4.812 3.925.79.248 1.496.712 2.036 1.341a3.185 3.185 0 0 0 2.416 1.135c.408 0 .812-.082 1.187-.242a3.079 3.079 0 0 0 1.869-2.831c0-.321-.05-.641-.152-.946a10.931 10.931 0 0 0-.884-2.035 8.43 8.43 0 0 0 3.323-5.082c.213-.253.406-.523.576-.806.335.043.67.081 1.007.137l3.61 21.714a34.326 34.326 0 0 0-21.744 0V38a1 1 0 0 0-2 0v12.522a34.332 34.332 0 0 0-21.744-.008zM2.651 54.632a.992.992 0 0 1-.21-.82L6.82 31.33h1.6L5.282 50.189a2.007 2.007 0 0 0 2.581 2.234 33.455 33.455 0 0 1 16.517-1.048L24.082 55H3.43c-.302 0-.588-.135-.779-.368zM30 57c-2.409 0-3.791-.712-3.994-1.029l.344-4.15c1.1.274 2.176.635 3.218 1.079a.994.994 0 0 0 .865 0 21.3 21.3 0 0 1 3.217-1.086l.344 4.156C33.791 56.288 32.409 57 30 57zm27.349-2.368a1.007 1.007 0 0 1-.779.368H35.921l-.3-3.632a33.465 33.465 0 0 1 16.524 1.057 2.006 2.006 0 0 0 2.572-2.239l-3.135-18.855h1.6l4.38 22.48a.992.992 0 0 1-.213.821z" fill="#ffffff" opacity="1" data-original="#000000"></path><path d="M26.686 22.685a1 1 0 0 0-.071 1.412 6.03 6.03 0 0 0 3.205 1.848 2.979 2.979 0 0 1-2.434 1.255 1 1 0 0 0 0 2 4.959 4.959 0 0 0 4.659-3.207 6.035 6.035 0 0 0 4.937-4.8 1 1 0 1 0-1.964-.376 3.986 3.986 0 0 1-1.656 2.539 4.082 4.082 0 0 1-5.264-.6 1 1 0 0 0-1.412-.071zM23.2 21.6a1 1 0 0 0 1-1 2.6 2.6 0 0 1 2.6-2.6 1 1 0 0 0 0-2 4.605 4.605 0 0 0-4.6 4.6 1 1 0 0 0 1 1zM31 2V1a1 1 0 0 0-2 0v1a1 1 0 0 0 2 0zM46.41 7.176l-1 1a1 1 0 1 0 1.414 1.414l1-1a1 1 0 1 0-1.414-1.414zM13.883 9.883a1 1 0 0 0 .707-1.707l-1-1a1 1 0 1 0-1.414 1.414l1 1a1 1 0 0 0 .707.293zM21.581 5.675a1 1 0 0 0 .924-1.383L21.356 1.52a1 1 0 1 0-1.847.766l1.148 2.772a1 1 0 0 0 .924.617zM39.95.979a1 1 0 0 0-1.306.541l-1.149 2.772a1 1 0 1 0 1.848.767l1.148-2.772A1 1 0 0 0 39.95.979zM50.325 17.582a1 1 0 0 0 .383-.077l2.771-1.148a1 1 0 0 0-.765-1.848l-2.772 1.148a1 1 0 0 0 .383 1.925zM9.292 17.505a1 1 0 1 0 .766-1.848l-2.772-1.148a1 1 0 0 0-.765 1.848z" fill="#ffffff" opacity="1" data-original="#000000"></path></g></g></svg>
