<svg xmlns="http://www.w3.org/2000/svg" version="1.1" xmlns:xlink="http://www.w3.org/1999/xlink" width="512" height="512" x="0" y="0" viewBox="0 0 510 510" style="enable-background:new 0 0 512 512" xml:space="preserve" fill-rule="evenodd" class=""><g><path d="M116.475 470.782a27.967 27.967 0 0 1-9.846 1.779c-7.855 0-14.961-3.235-20.056-8.445-5.095 5.21-12.2 8.445-20.055 8.445-15.485 0-28.056-12.571-28.056-28.055v-84.325a23.67 23.67 0 0 1-7.731 1.29C17.634 361.471 7 350.838 7 337.74v-80.513c0-11.743 10.04-22.13 17.609-26.163 5.341-2.846 21.711-14.341 61.945-14.439 11.747-.028 21.665 1.045 29.921 2.617v-3.749a8 8 0 0 1 8-8h50.952V155.23c0-11.743 10.04-22.13 17.609-26.163 5.341-2.846 21.711-14.342 61.945-14.439 37.48-.091 56.492 10.918 62.356 14.146 7.672 4.223 17.236 14.763 17.236 26.456v52.263h50.952a8 8 0 0 1 8 8v3.746c8.062-1.528 17.908-2.585 29.883-2.614 37.48-.09 56.492 10.919 62.356 14.147 7.672 4.223 17.236 14.762 17.236 26.455v80.513c0 13.098-10.634 23.731-23.731 23.731a23.67 23.67 0 0 1-7.731-1.29v84.325c0 15.484-12.571 28.055-28.056 28.055-7.855 0-14.96-3.235-20.055-8.445-5.095 5.21-12.201 8.445-20.056 8.445-3.463 0-6.782-.629-9.846-1.779v5.721a8 8 0 0 1-8 8H124.475a8 8 0 0 1-8-8zm0-235.211c-7.956-1.737-17.844-2.975-29.883-2.946-35.352.086-49.766 10.059-54.459 12.56C28.505 247.118 23 251.6 23 257.227v80.513c0 4.267 3.464 7.731 7.731 7.731s7.731-3.464 7.731-7.731v-54.564c0-4.416 3.585-8 8-8 4.416 0 8 3.584 8 8v161.33c0 6.653 5.402 12.055 12.056 12.055 6.162 0 11.251-4.634 11.969-10.604v-64.038c0-4.416 3.584-8 8-8 4.415 0 8 3.584 8 8v62.587h.086c0 6.653 5.402 12.055 12.056 12.055 4.064 0 7.66-2.017 9.846-5.102zm74.952-28.078h15.462v-26.315c0-4.415 3.585-8 8-8s8 3.585 8 8v26.315H287.111v-26.315c0-4.415 3.585-8 8-8s8 3.585 8 8v26.315h15.462V155.23c0-5.676-5.228-10.39-8.951-12.439-5.131-2.824-21.812-12.242-54.603-12.163-35.352.085-49.766 10.059-54.459 12.559-3.628 1.933-9.133 6.415-9.133 12.043zm55.553 16H132.475v114.505h40.878a8.001 8.001 0 0 1 7.86 9.491c-1.275 6.72-3.366 10.949-5.431 14.565-1.921 3.364-4.019 5.799-4.019 11.41 0 9.921 8.043 17.964 17.965 17.964 9.921 0 17.964-8.043 17.964-17.964 0-5.611-2.097-8.046-4.018-11.41-2.065-3.616-4.157-7.845-5.432-14.565a8.002 8.002 0 0 1 7.86-9.491h40.878l.001-29.546c-1.693.956-3.152 1.927-4.715 2.741-3.853 2.005-8.069 3.517-14.751 3.517-18.758 0-33.965-15.207-33.965-33.965s15.207-33.964 33.965-33.964c6.682 0 10.898 1.512 14.751 3.517 1.563.814 3.022 1.784 4.714 2.74zm146.545 12.075v215.891c2.186 3.085 5.782 5.102 9.846 5.102 6.163 0 11.252-4.634 11.969-10.604v-64.038c0-4.416 3.585-8 8-8 4.416 0 8 3.584 8 8v62.587h.087c0 6.653 5.402 12.055 12.055 12.055 6.654 0 12.056-5.402 12.056-12.055v-161.33c0-4.416 3.584-8 8-8 4.415 0 8 3.584 8 8v54.564c0 4.267 3.464 7.731 7.731 7.731S487 342.007 487 337.74v-80.513c0-5.675-5.228-10.389-8.952-12.439-5.13-2.824-21.811-12.242-54.602-12.163-12.355.03-22.173 1.244-29.921 2.943zm-16 118.43h-40.878a8.001 8.001 0 0 1-7.86-9.491c1.275-6.72 3.366-10.949 5.431-14.565 1.921-3.364 4.019-5.799 4.019-11.41 0-9.921-8.043-17.964-17.965-17.964-9.921 0-17.964 8.043-17.964 17.964 0 5.611 2.097 8.046 4.018 11.41 2.065 3.616 4.157 7.845 5.432 14.565a8.002 8.002 0 0 1-7.86 9.491H263.02l-.001 29.546c1.693-.956 3.152-1.927 4.715-2.741 3.853-2.005 8.069-3.517 14.751-3.517 18.758 0 33.965 15.207 33.965 33.965s-15.207 33.964-33.965 33.964c-6.682 0-10.898-1.512-14.751-3.517-1.563-.814-3.022-1.784-4.714-2.74v29.545h114.505zm-114.545-16h29.585c-.956-1.692-1.927-3.151-2.74-4.714-2.005-3.854-3.517-8.07-3.517-14.752 0-18.757 15.206-33.964 33.964-33.964s33.965 15.207 33.965 33.964c0 6.682-1.512 10.898-3.518 14.752-.813 1.563-1.784 3.022-2.74 4.714h29.546V223.493H262.98v40.878a7.998 7.998 0 0 1-9.491 7.86c-6.719-1.275-10.949-3.367-14.564-5.432-3.364-1.921-5.8-4.018-11.41-4.018-9.921 0-17.965 8.043-17.965 17.964 0 9.922 8.044 17.965 17.965 17.965 5.61 0 8.046-2.097 11.41-4.019 3.615-2.064 7.845-4.156 14.564-5.431a8 8 0 0 1 9.491 7.86zm-15.96 130.505v-40.878a7.998 7.998 0 0 1 9.491-7.86c6.719 1.275 10.949 3.367 14.564 5.432 3.364 1.921 5.8 4.018 11.41 4.018 9.921 0 17.965-8.043 17.965-17.964 0-9.922-8.044-17.965-17.965-17.965-5.61 0-8.046 2.097-11.41 4.019-3.615 2.064-7.845 4.156-14.564 5.431a8 8 0 0 1-9.491-7.86v-40.878h-29.585c.956 1.692 1.927 3.151 2.74 4.714 2.005 3.854 3.517 8.07 3.517 14.752 0 18.757-15.206 33.964-33.964 33.964s-33.965-15.207-33.965-33.964c0-6.682 1.512-10.898 3.518-14.752.813-1.563 1.784-3.022 2.74-4.714h-29.546v114.505zM86.573 127.494c22.204 0 40.231 18.027 40.231 40.231s-18.027 40.23-40.231 40.23-40.231-18.026-40.231-40.23 18.027-40.231 40.231-40.231zm0 16c-13.373 0-24.231 10.858-24.231 24.231s10.858 24.23 24.231 24.23 24.231-10.857 24.231-24.23-10.858-24.231-24.231-24.231zM255 25.497c22.204 0 40.231 18.026 40.231 40.23S277.204 105.958 255 105.958s-40.231-18.027-40.231-40.231 18.027-40.23 40.231-40.23zm0 16c-13.373 0-24.231 10.857-24.231 24.23 0 13.374 10.858 24.231 24.231 24.231s24.231-10.857 24.231-24.231c0-13.373-10.858-24.23-24.231-24.23zm168.427 85.997c22.204 0 40.231 18.027 40.231 40.231s-18.027 40.23-40.231 40.23-40.231-18.026-40.231-40.23 18.027-40.231 40.231-40.231zm0 16c-13.373 0-24.231 10.858-24.231 24.231s10.858 24.23 24.231 24.23 24.231-10.857 24.231-24.23-10.858-24.231-24.231-24.231z" fill="#ffffff" opacity="1" data-original="#000000"></path></g></svg>